<?xml version="1.0" encoding="UTF-8" standalone="no"?>
<!-- Generator: Adobe Illustrator 16.0.0, SVG Export Plug-In . SVG Version: 6.00 Build 0)  -->

<svg
   xmlns:dc="http://purl.org/dc/elements/1.1/"
   xmlns:cc="http://creativecommons.org/ns#"
   xmlns:rdf="http://www.w3.org/1999/02/22-rdf-syntax-ns#"
   xmlns:svg="http://www.w3.org/2000/svg"
   xmlns="http://www.w3.org/2000/svg"
   xmlns:sodipodi="http://sodipodi.sourceforge.net/DTD/sodipodi-0.dtd"
   xmlns:inkscape="http://www.inkscape.org/namespaces/inkscape"
   version="1.1"
   id="Capa_1"
   x="0px"
   y="0px"
   width="648.17499"
   height="501.99399"
   viewBox="0 0 648.17496 501.99397"
   xml:space="preserve"
   sodipodi:docname="cloud-storage-uploading-option.svg"
   inkscape:version="0.92.1 r15371"><metadata
     id="metadata41"><rdf:RDF><cc:Work
         rdf:about=""><dc:format>image/svg+xml</dc:format><dc:type
           rdf:resource="http://purl.org/dc/dcmitype/StillImage" /><dc:title></dc:title></cc:Work></rdf:RDF></metadata><defs
     id="defs39" /><sodipodi:namedview
     pagecolor="#ffffff"
     bordercolor="#666666"
     borderopacity="1"
     objecttolerance="10"
     gridtolerance="10"
     guidetolerance="10"
     inkscape:pageopacity="0"
     inkscape:pageshadow="2"
     inkscape:window-width="1440"
     inkscape:window-height="837"
     id="namedview37"
     showgrid="false"
     fit-margin-left="50"
     fit-margin-top="50"
     fit-margin-right="50"
     fit-margin-bottom="50"
     inkscape:zoom="0.43051865"
     inkscape:cx="-53.3637"
     inkscape:cy="250.997"
     inkscape:window-x="-8"
     inkscape:window-y="-8"
     inkscape:window-maximized="1"
     inkscape:current-layer="Capa_1" /><g
     id="g4"
     style="fill:#fffffc;fill-opacity:1"
     transform="translate(50,-23.091)"><path
       d="m 524.326,297.352 c -15.896,-19.89 -36.21,-32.782 -60.959,-38.684 7.81,-11.8 11.704,-24.934 11.704,-39.399 0,-20.177 -7.139,-37.401 -21.409,-51.678 -14.273,-14.272 -31.498,-21.411 -51.675,-21.411 -18.083,0 -33.879,5.901 -47.39,17.703 -11.225,-27.41 -29.171,-49.393 -53.817,-65.95 -24.646,-16.562 -51.818,-24.842 -81.514,-24.842 -40.349,0 -74.802,14.279 -103.353,42.83 -28.553,28.544 -42.825,62.999 -42.825,103.351 0,2.474 0.191,6.567 0.571,12.275 C 51.2,242.016 33.31,257.718 19.983,278.653 6.661,299.594 0,322.43 0,347.179 c 0,35.214 12.517,65.329 37.544,90.358 25.028,25.037 55.15,37.548 90.362,37.548 h 310.636 c 30.259,0 56.096,-10.711 77.512,-32.12 21.413,-21.409 32.121,-47.246 32.121,-77.516 -0.003,-25.505 -7.952,-48.201 -23.849,-68.097 z m -161.597,-7.704 c -1.813,1.804 -3.949,2.707 -6.42,2.707 h -63.953 v 100.502 c 0,2.471 -0.903,4.613 -2.711,6.42 -1.813,1.813 -3.949,2.711 -6.42,2.711 h -54.826 c -2.474,0 -4.615,-0.897 -6.423,-2.711 -1.804,-1.807 -2.712,-3.949 -2.712,-6.42 V 292.355 H 155.31 c -2.662,0 -4.853,-0.855 -6.563,-2.563 -1.713,-1.714 -2.568,-3.904 -2.568,-6.566 0,-2.286 0.95,-4.572 2.852,-6.855 l 100.213,-100.21 c 1.713,-1.714 3.903,-2.57 6.567,-2.57 2.666,0 4.856,0.856 6.567,2.57 l 100.499,100.495 c 1.714,1.712 2.562,3.901 2.562,6.571 -0.001,2.469 -0.904,4.618 -2.71,6.421 z"
       id="path2"
       style="fill:#fffffc;fill-opacity:1"
       inkscape:connector-curvature="0" /></g><g
     id="g6"
     transform="translate(50,-23.091)" /><g
     id="g8"
     transform="translate(50,-23.091)" /><g
     id="g10"
     transform="translate(50,-23.091)" /><g
     id="g12"
     transform="translate(50,-23.091)" /><g
     id="g14"
     transform="translate(50,-23.091)" /><g
     id="g16"
     transform="translate(50,-23.091)" /><g
     id="g18"
     transform="translate(50,-23.091)" /><g
     id="g20"
     transform="translate(50,-23.091)" /><g
     id="g22"
     transform="translate(50,-23.091)" /><g
     id="g24"
     transform="translate(50,-23.091)" /><g
     id="g26"
     transform="translate(50,-23.091)" /><g
     id="g28"
     transform="translate(50,-23.091)" /><g
     id="g30"
     transform="translate(50,-23.091)" /><g
     id="g32"
     transform="translate(50,-23.091)" /><g
     id="g34"
     transform="translate(50,-23.091)" /></svg>