<?xml version="1.0" encoding="iso-8859-1"?>
<!-- Generator: Adobe Illustrator 19.0.0, SVG Export Plug-In . SVG Version: 6.00 Build 0)  -->
<svg version="1.1" id="Capa_1" xmlns="http://www.w3.org/2000/svg" xmlns:xlink="http://www.w3.org/1999/xlink" x="0px" y="0px"
	 viewBox="0 0 512 512" style="enable-background:new 0 0 512 512;" xml:space="preserve">
<rect x="229.275" y="312.487" style="fill:#4B5055;" width="53.451" height="169.43"/>
<path style="fill:#5A5F64;" d="M481.369,380.866H30.631c-11.647,0-21.178-9.53-21.178-21.178V31.074
	c0-11.647,9.53-21.178,21.178-21.178h450.737c11.647,0,21.178,9.53,21.178,21.178v328.614
	C502.546,371.335,493.016,380.866,481.369,380.866z"/>
<path style="fill:#7FBED7;" d="M472.053,64.424v261.91c0,11.648-9.53,21.179-21.179,21.179H61.126
	c-11.648,0-21.179-9.53-21.179-21.179V64.424c0-11.648,9.53-21.179,21.179-21.179h389.749
	C462.523,43.245,472.053,52.775,472.053,64.424z"/>
<path style="fill:#A6D2E3;" d="M472.053,64.424v261.91c0,11.648-9.53,21.179-21.179,21.179H87.851
	c-11.648,0-21.179-9.53-21.179-21.179V64.424c0-11.648,9.53-21.179,21.179-21.179h363.023
	C462.523,43.245,472.053,52.775,472.053,64.424z"/>
<path style="fill:#D63030;" d="M367.41,305.346H144.59c-14.2,0-23.075-15.37-15.975-27.673l55.7-96.484l16.267-28.168l39.443-68.306
	c7.1-12.304,24.85-12.304,31.95,0l55.71,96.474l42.609,73.803l13.09,22.681C390.485,289.977,381.61,305.346,367.41,305.346z"/>
<path style="fill:#4B5055;" d="M383.072,483.933c0,6.132-2.481,11.678-6.495,15.692c-4.014,4.014-9.561,6.495-15.692,6.495h-209.77
	c-12.253,0-22.187-9.934-22.187-22.187c0-6.132,2.481-11.679,6.495-15.692c2.804-2.804,6.354-4.861,10.337-5.839
	c1.714-0.434,3.51-0.656,5.355-0.656h209.77c12.031,0,21.834,9.581,22.167,21.532C383.072,483.489,383.072,483.711,383.072,483.933z
	"/>
<path style="fill:#5A5F64;" d="M383.052,483.278c-1.714,0.434-3.51,0.656-5.355,0.656h-209.77c-12.031,0-21.834-9.581-22.167-21.532
	c1.714-0.434,3.51-0.656,5.355-0.656h209.77C372.916,461.746,382.719,471.327,383.052,483.278z"/>
<path style="fill:#F44545;" d="M370.294,254.991c-15.36,7.211-32.514,11.245-50.607,11.245
	c-63.839,0-115.958-50.153-119.105-113.215l39.443-68.306c7.1-12.304,24.85-12.304,31.95,0l55.71,96.474L370.294,254.991z"/>
<g>
	<path style="fill:#FFEA06;" d="M256.869,219.659h-1.739c-7.766,0-14.119-6.354-14.119-14.119v-70.257
		c0-7.766,6.354-14.119,14.119-14.119h1.739c7.766,0,14.119,6.354,14.119,14.119v70.257
		C270.988,213.306,264.635,219.659,256.869,219.659z"/>
	<circle style="fill:#FFEA06;" cx="256" cy="260.448" r="18.972"/>
</g>
<path d="M481.372,0H30.628C14.785,0,1.886,12.889,1.886,28.743v328.613c0,15.854,12.899,28.743,28.743,28.743h191.082v66.4h-70.596
	c-16.408,0-29.751,13.353-29.751,29.751c0,16.408,13.343,29.751,29.751,29.751h156.46c4.175,0,7.564-3.379,7.564-7.564
	c0-4.175-3.389-7.564-7.564-7.564h-156.46c-8.068,0-14.623-6.555-14.623-14.623c0-8.058,6.555-14.623,14.623-14.623
	c22.584,0,187.729,0,209.77,0c8.068,0,14.623,6.565,14.623,14.623c0,8.068-6.555,14.623-14.623,14.623H337.83
	c-4.175,0-7.564,3.389-7.564,7.564c0,4.185,3.389,7.564,7.564,7.564h23.055c16.408,0,29.751-13.343,29.751-29.751
	c0-16.398-13.343-29.751-29.751-29.751h-70.596v-66.4h191.082c15.844,0,28.742-12.889,28.742-28.743V28.743
	C510.114,12.889,497.215,0,481.372,0z M275.162,452.498h-38.323v-66.4h38.323V452.498z M494.986,357.355
	c0,7.503-6.112,13.615-13.615,13.615c-14.361,0-431.062,0-450.743,0c-7.503,0-13.615-6.112-13.615-13.615V28.743
	c0-7.503,6.112-13.615,13.615-13.615h450.743c7.503,0,13.615,6.112,13.615,13.615V357.355z"/>
<path d="M450.874,33.351H79.158c-4.185,0-7.564,3.389-7.564,7.564c0,4.185,3.379,7.564,7.564,7.564h371.716
	c7.513,0,13.615,6.112,13.615,13.615v261.91c0,7.503-6.101,13.615-13.615,13.615c-19.811,0-374.208,0-389.749,0
	c-7.513,0-13.615-6.112-13.615-13.615V62.094c0-4.589,2.32-8.855,6.212-11.396c3.489-2.289,4.468-6.979,2.178-10.478
	c-2.289-3.489-6.969-4.468-10.468-2.178c-8.169,5.345-13.05,14.341-13.05,24.053v261.91c0,15.844,12.889,28.743,28.743,28.743
	c13.519,0,371.656,0,389.749,0c15.854,0,28.743-12.899,28.743-28.743V62.094C479.617,46.25,466.728,33.351,450.874,33.351z"/>
<path d="M374.54,262.354c3.621-2.088,4.861-6.707,2.773-10.327L278.53,80.933c-4.71-8.149-13.131-13.01-22.53-13.01
	c-9.399,0-17.82,4.861-22.53,13.01L122.06,273.901c-10.008,17.373,2.585,39.009,22.53,39.009c24.219,0,199.696,0,222.82,0
	c17.109,0,29.506-16.292,25.193-32.545c-1.059-4.044-5.194-6.454-9.238-5.396c-4.034,1.059-6.454,5.194-5.385,9.238
	c1.675,6.55-3.188,13.575-10.569,13.575H144.59c-8.303,0-13.644-8.998-9.419-16.328l111.4-192.958
	c4.211-7.261,14.647-7.265,18.859,0l98.784,171.094C366.301,263.211,370.92,264.441,374.54,262.354z"/>
<path d="M255.133,227.227h1.735c11.961,0,21.683-9.732,21.683-21.683v-70.263c0-11.951-9.722-21.683-21.683-21.683h-1.735
	c-11.961,0-21.683,9.732-21.683,21.683v70.263C233.45,217.495,243.172,227.227,255.133,227.227z M248.577,135.281
	c0-3.61,2.935-6.555,6.555-6.555h1.735c3.621,0,6.555,2.945,6.555,6.555v70.263c0,3.61-2.935,6.555-6.555,6.555h-1.735
	c-3.621,0-6.555-2.945-6.555-6.555L248.577,135.281L248.577,135.281z"/>
<path d="M256,286.991c14.633,0,26.534-11.91,26.534-26.544c0-14.623-11.9-26.534-26.534-26.534
	c-14.633,0-26.534,11.91-26.534,26.534C229.466,275.081,241.367,286.991,256,286.991z M256,249.041
	c6.293,0,11.406,5.123,11.406,11.406c0,6.293-5.113,11.416-11.406,11.416s-11.406-5.123-11.406-11.416
	C244.594,254.165,249.707,249.041,256,249.041z"/>
<g>
</g>
<g>
</g>
<g>
</g>
<g>
</g>
<g>
</g>
<g>
</g>
<g>
</g>
<g>
</g>
<g>
</g>
<g>
</g>
<g>
</g>
<g>
</g>
<g>
</g>
<g>
</g>
<g>
</g>
</svg>
