<?xml version="1.0" encoding="UTF-8" standalone="no"?>
<!-- Generator: Adobe Illustrator 19.0.0, SVG Export Plug-In . SVG Version: 6.00 Build 0)  -->

<svg
   xmlns:dc="http://purl.org/dc/elements/1.1/"
   xmlns:cc="http://creativecommons.org/ns#"
   xmlns:rdf="http://www.w3.org/1999/02/22-rdf-syntax-ns#"
   xmlns:svg="http://www.w3.org/2000/svg"
   xmlns="http://www.w3.org/2000/svg"
   xmlns:sodipodi="http://sodipodi.sourceforge.net/DTD/sodipodi-0.dtd"
   xmlns:inkscape="http://www.inkscape.org/namespaces/inkscape"
   version="1.1"
   id="Capa_1"
   x="0px"
   y="0px"
   viewBox="0 0 68.081459 74.099998"
   xml:space="preserve"
   sodipodi:docname="file.svg"
   width="68.081459"
   height="74.099998"
   inkscape:version="0.92.1 r15371"><metadata
     id="metadata51"><rdf:RDF><cc:Work
         rdf:about=""><dc:format>image/svg+xml</dc:format><dc:type
           rdf:resource="http://purl.org/dc/dcmitype/StillImage" /><dc:title></dc:title></cc:Work></rdf:RDF></metadata><defs
     id="defs49" /><sodipodi:namedview
     pagecolor="#ffffff"
     bordercolor="#666666"
     borderopacity="1"
     objecttolerance="10"
     gridtolerance="10"
     guidetolerance="10"
     inkscape:pageopacity="0"
     inkscape:pageshadow="2"
     inkscape:window-width="1440"
     inkscape:window-height="837"
     id="namedview47"
     showgrid="false"
     inkscape:snap-object-midpoints="true"
     inkscape:snap-bbox="true"
     inkscape:snap-bbox-midpoints="true"
     inkscape:bbox-paths="true"
     inkscape:bbox-nodes="true"
     inkscape:snap-bbox-edge-midpoints="true"
     fit-margin-top="0.3"
     fit-margin-left="0.3"
     fit-margin-right="0.3"
     fit-margin-bottom="0.3"
     inkscape:zoom="3.9333333"
     inkscape:cx="2.1813559"
     inkscape:cy="43.8"
     inkscape:window-x="-8"
     inkscape:window-y="-8"
     inkscape:window-maximized="1"
     inkscape:current-layer="Capa_1" /><g
     id="g14"
     transform="translate(-5.7,0.3)"
     style="stroke:none;stroke-opacity:1;fill:#ffffff;fill-opacity:1"><path
       d="M 45,25 H 20 c -0.552,0 -1,0.447 -1,1 0,0.553 0.448,1 1,1 h 25 c 0.552,0 1,-0.447 1,-1 0,-0.553 -0.448,-1 -1,-1 z"
       id="path2"
       inkscape:connector-curvature="0"
       style="stroke:none;stroke-opacity:1;fill:#ffffff;fill-opacity:1" /><path
       d="m 20,19 h 10 c 0.552,0 1,-0.447 1,-1 0,-0.553 -0.448,-1 -1,-1 H 20 c -0.552,0 -1,0.447 -1,1 0,0.553 0.448,1 1,1 z"
       id="path4"
       inkscape:connector-curvature="0"
       style="stroke:none;stroke-opacity:1;fill:#ffffff;fill-opacity:1" /><path
       d="M 45,33 H 20 c -0.552,0 -1,0.447 -1,1 0,0.553 0.448,1 1,1 h 25 c 0.552,0 1,-0.447 1,-1 0,-0.553 -0.448,-1 -1,-1 z"
       id="path6"
       inkscape:connector-curvature="0"
       style="stroke:none;stroke-opacity:1;fill:#ffffff;fill-opacity:1" /><path
       d="M 45,41 H 20 c -0.552,0 -1,0.447 -1,1 0,0.553 0.448,1 1,1 h 25 c 0.552,0 1,-0.447 1,-1 0,-0.553 -0.448,-1 -1,-1 z"
       id="path8"
       inkscape:connector-curvature="0"
       style="stroke:none;stroke-opacity:1;fill:#ffffff;fill-opacity:1" /><path
       d="M 45,49 H 20 c -0.552,0 -1,0.447 -1,1 0,0.553 0.448,1 1,1 h 25 c 0.552,0 1,-0.447 1,-1 0,-0.553 -0.448,-1 -1,-1 z"
       id="path10"
       inkscape:connector-curvature="0"
       style="stroke:none;stroke-opacity:1;fill:#ffffff;fill-opacity:1" /><path
       d="M 49,14.586 V 0 H 6 v 55 h 5 v 5 H 54 V 19.586 Z m -9,-6.172 9,9 L 50.586,19 H 40 Z M 8,53 V 2 H 47 V 12.586 L 39.414,5 H 11 v 48 z m 5,5 V 55 7 h 25 v 14 h 14 v 37 z"
       id="path12"
       inkscape:connector-curvature="0"
       style="stroke:none;stroke-opacity:1;fill:#ffffff;fill-opacity:1" /></g><g
     id="g16"
     transform="translate(-5.7,0.3)" /><g
     id="g18"
     transform="translate(-5.7,0.3)" /><g
     id="g20"
     transform="translate(-5.7,0.3)" /><g
     id="g22"
     transform="translate(-5.7,0.3)" /><g
     id="g24"
     transform="translate(-5.7,0.3)" /><g
     id="g26"
     transform="translate(-5.7,0.3)" /><g
     id="g28"
     transform="translate(-5.7,0.3)" /><g
     id="g30"
     transform="translate(-5.7,0.3)" /><g
     id="g32"
     transform="translate(-5.7,0.3)" /><g
     id="g34"
     transform="translate(-5.7,0.3)" /><g
     id="g36"
     transform="translate(-5.7,0.3)" /><g
     id="g38"
     transform="translate(-5.7,0.3)" /><g
     id="g40"
     transform="translate(-5.7,0.3)" /><g
     id="g42"
     transform="translate(-5.7,0.3)" /><g
     id="g44"
     transform="translate(-5.7,0.3)" /><path
     style="fill:#ffffff;fill-opacity:1;stroke:none;stroke-width:2.11500001;stroke-miterlimit:4;stroke-dasharray:none;stroke-opacity:1"
     d="M 38.959196,28.8 V 44.975781 H 22.781462 V 57.622266 H 38.959196 V 73.8 H 51.605681 V 57.622266 H 67.781462 V 44.975781 H 51.605681 V 28.8 Z"
     id="rect53"
     inkscape:connector-curvature="0" /></svg>